<?xml version="1.0"?>
<svg viewBox="0 0 450 450" xmlns="http://www.w3.org/2000/svg" xmlns:svg="http://www.w3.org/2000/svg">
    <title>Cactus with a Cowboy Hat</title>
    <g fill-rule="evenodd" id="cactus">
        <path d="m192.305497,449.532627l60.328576,0.467383l9.67536,-153.560353c0,0 39.157427,37.622411 84.843516,3.272601c45.684009,-34.351903 58.735094,-147.214989 8.156674,-139.037653c-50.578432,8.181508 -13.053177,83.424263 -34.263016,104.68575c-21.211919,21.267751 -50.57842,-3.268429 -50.57842,-3.268429c2.975017,-35.794512 8.964454,-91.537288 -1.452245,-129.750794c35.681063,-5.050919 58.785561,-12.670115 70.348197,-18.208254c21.159877,-10.139223 37.546077,-21.075728 35.43717,-38.16507c-0.045803,-0.381942 -0.129078,-0.749276 -0.237334,-1.106176c-0.035392,-0.112699 -0.085355,-0.217054 -0.126986,-0.327672c-0.085355,-0.237937 -0.172801,-0.475861 -0.283137,-0.697099c-0.056214,-0.118975 -0.122826,-0.227501 -0.185279,-0.3402c-0.116587,-0.20663 -0.235254,-0.411169 -0.368491,-0.607351c-0.070784,-0.104355 -0.149887,-0.202459 -0.226923,-0.304722c-0.143648,-0.187839 -0.289376,-0.373598 -0.447594,-0.54891c-0.035392,-0.03757 -0.064533,-0.081404 -0.097845,-0.118975c-0.00208,0.002092 -0.004159,0.006264 -0.006251,0.010436c-0.820245,-0.882846 -1.796629,-1.594552 -2.787584,-2.089205c-7.311448,-3.660806 -26.947409,7.217258 -40.410696,11.875713c-11.329399,3.919614 -20.339619,5.434854 -32.76199,5.082139c0.720308,-0.275507 1.46145,-0.517603 2.177599,-0.801454c-1.092959,-3.095197 -2.858368,-8.102196 -4.915232,-13.964918c-0.57458,-1.640478 -1.165835,-3.32687 -1.779979,-5.080047c-0.982623,0.371506 -1.98816,0.690835 -2.977035,1.047734c-7.536279,-24.774117 -21.380548,-65.32477 -31.271386,-65.32477c-8.533485,0 -14.027481,5.599742 -20.566554,14.192419c-1.961099,2.577594 -10.128172,15.083621 -18.90315,15.160841c-8.772898,-0.07722 -16.742201,-12.583247 -18.661657,-15.160841c-6.405836,-8.592677 -11.810306,-14.192419 -20.341711,-14.192419c-10.313464,0 -25.292336,44.071626 -32.77448,68.394912c-0.782786,-0.240017 -1.58013,-0.448727 -2.358731,-0.699179l-8.304482,16.479898c-10.459192,-0.056349 -18.661657,-1.640478 -28.658684,-5.134317c-13.33005,-4.658455 -32.659985,-15.536519 -40.073438,-11.875713c-1.128351,0.559345 -2.260874,1.377499 -3.164394,2.418969c-0.022901,0.025055 -0.041644,0.056362 -0.064545,0.081404c-0.19569,0.233753 -0.387221,0.473769 -0.55793,0.730485c-0.012491,0.018791 -0.020822,0.039662 -0.035392,0.058441c-0.174881,0.267151 -0.339338,0.542658 -0.482987,0.83276c-0.022901,0.045914 -0.037472,0.098104 -0.058294,0.146097c-0.124906,0.267151 -0.241493,0.536395 -0.333099,0.820245c-0.106176,0.336028 -0.189451,0.682492 -0.243573,1.041471c-2.591893,17.089342 13.484109,28.025847 34.358769,38.16507c12.574067,6.106406 39.110726,14.74283 81.172717,19.676915c-6.353437,41.93487 8.945859,106.420493 12.475545,157.720956c0.19777,2.87396 0.385141,5.720797 0.56209,8.540487c-10.144822,9.162457 -27.488677,19.136804 -46.117021,4.547836c-25.769083,-20.182447 21.751119,-104.68575 -34.058982,-111.228872c-53.934369,-6.323964 -31.036145,201.246342 81.881039,139.857898c2.492239,62.514801 0.163473,106.063754 -0.480722,116.284528z" fill-rule="nonzero" id="svg_1"/>
    </g>
</svg>